<?xml version="1.0" encoding="UTF-8" standalone="no"?>
<svg
   xmlns:dc="http://purl.org/dc/elements/1.1/"
   xmlns:cc="http://creativecommons.org/ns#"
   xmlns:rdf="http://www.w3.org/1999/02/22-rdf-syntax-ns#"
   xmlns:svg="http://www.w3.org/2000/svg"
   xmlns="http://www.w3.org/2000/svg"
   viewBox="0 0 134.66667 116"
   height="116"
   width="134.66667"
   xml:space="preserve"
   id="svg2"
   version="1.1"><metadata
     id="metadata8"><rdf:RDF><cc:Work
         rdf:about=""><dc:format>image/svg+xml</dc:format><dc:type
           rdf:resource="http://purl.org/dc/dcmitype/StillImage" /></cc:Work></rdf:RDF></metadata><defs
     id="defs6" /><g
     transform="matrix(1.3333333,0,0,-1.3333333,0,116)"
     id="g10"><g
       transform="scale(0.1)"
       id="g12"><path
         id="path14"
         style="fill:#2f9bdf;fill-opacity:1;fill-rule:nonzero;stroke:none"
         d="m 1018.01,786.031 c 0,22.989 -7.99,42.981 -24.487,59.477 -16.496,16.492 -36.488,24.488 -59.976,24.488 H 88.3828 C 64.8945,869.996 45.4023,862 28.9063,845.508 12.4141,829.012 3.91797,809.02 3.91797,786.031 V 210.762 c 0,-22.992 8.49613,-42.985 24.98833,-59.477 16.496,-16.496 35.9882,-24.992 59.4765,-24.992 H 375.77 c 0,-13.492 -3,-26.9883 -8.497,-40.9844 -5.5,-14.4922 -10.996,-26.4883 -16.496,-36.9844 -5.996,-10.4961 -8.996,-18.4922 -8.996,-23.4883 0,-8.9961 3.5,-16.99606 9.996,-23.99215 7,-6.49609 14.996,-9.49609 23.993,-9.49609 h 270.39 c 8.996,0 16.992,3 23.492,9.49609 6.996,6.99609 10.496,14.99605 10.496,23.99215 0,4.4961 -3,12.4922 -8.496,23.4883 -5.5,10.4961 -11.496,22.9922 -16.996,37.4844 -5.496,13.9961 -8.496,27.4924 -8.496,40.4844 h 287.387 c 23.488,0 43.48,8.496 59.976,24.992 16.497,16.492 24.487,36.485 24.487,59.477 z m -72.467,11.492 c 3.496,-3.496 4.996,-7.496 4.996,-11.492 V 346.207 c 0,-4.5 -1.5,-8.496 -4.996,-11.996 -3.5,-3.5 -7.5,-5 -11.996,-5 H 88.3828 c -4.4961,0 -8.4961,1.5 -11.9922,5 -3.5,3.5 -5,7.496 -5,11.996 v 439.824 c 0,3.996 1.5,7.996 5,11.492 3.4961,3.5 7.4961,5 11.9922,5 H 933.547 c 4.496,0 8.496,-1.5 11.996,-5" /></g></g></svg>