<?xml version="1.0" encoding="UTF-8" standalone="no"?>
<svg
   xmlns:dc="http://purl.org/dc/elements/1.1/"
   xmlns:cc="http://creativecommons.org/ns#"
   xmlns:rdf="http://www.w3.org/1999/02/22-rdf-syntax-ns#"
   xmlns:svg="http://www.w3.org/2000/svg"
   xmlns="http://www.w3.org/2000/svg"
   viewBox="0 0 125.33333 108"
   height="108"
   width="125.33333"
   xml:space="preserve"
   id="svg2"
   version="1.1"><metadata
     id="metadata8"><rdf:RDF><cc:Work
         rdf:about=""><dc:format>image/svg+xml</dc:format><dc:type
           rdf:resource="http://purl.org/dc/dcmitype/StillImage" /></cc:Work></rdf:RDF></metadata><defs
     id="defs6" /><g
     transform="matrix(1.3333333,0,0,-1.3333333,0,108)"
     id="g10"><g
       transform="scale(0.1)"
       id="g12"><path
         id="path14"
         style="fill:#2f9bdf;fill-opacity:1;fill-rule:nonzero;stroke:none"
         d="M 260.266,802.523 C 181.297,802.523 119.32,780.531 74.8398,737.051 30.3555,693.566 7.86328,632.59 7.86328,555.121 c 0,-23.488 4.00002,-47.48 12.49612,-72.469 8.4961,-25.492 17.4922,-46.98 27.9883,-64.476 10.4961,-17.492 22.4921,-34.485 35.9882,-50.977 13.4922,-16.496 22.9881,-28.492 29.4881,-34.988 5.996,-6.496 10.992,-10.996 14.492,-13.496 L 458.184,0.34375 c 6,-5.99609 13.496,-8.99609 22.992,-8.99609 9.496,0 16.992,3 22.992,8.99609 L 833.535,317.719 c 80.469,80.465 120.949,159.933 120.949,237.402 0,77.469 -22.488,138.445 -66.972,181.93 -44.481,43.48 -106.457,65.472 -185.426,65.472 -21.988,0 -44.481,-3.5 -66.973,-10.996 -22.992,-7.496 -43.98,-17.992 -63.472,-30.988 -19.493,-12.492 -35.989,-24.488 -50.481,-35.984 -13.996,-11.496 -27.488,-23.992 -39.984,-36.485 -12.496,12.493 -25.988,24.989 -40.485,36.485 -13.996,11.496 -30.488,23.492 -49.98,35.984 -19.492,12.996 -40.984,23.492 -63.473,30.988 -22.492,7.496 -44.984,10.996 -66.972,10.996 z m -51.981,-71.472 c 16.492,2.5 33.485,4 51.981,4 18.492,0 37.984,-4.5 58.972,-13.496 21.492,-8.996 40.985,-19.992 58.977,-33.485 17.496,-13.496 32.488,-26.492 44.984,-38.484 12.996,-11.496 23.489,-22.492 31.989,-32.488 6.496,-7.496 15.492,-11.496 25.988,-11.496 10.496,0 19.492,4 25.988,11.496 8.496,9.996 18.992,20.992 31.488,32.488 12.496,11.992 27.989,24.988 45.481,38.484 17.996,13.493 37.488,24.489 58.976,33.485 20.493,8.996 40.485,13.496 58.977,13.496 17.992,0 34.988,-1.5 51.48,-4 16.493,-2.996 32.989,-8.496 49.481,-16.992 16.992,-7.996 31.488,-18.493 42.984,-31.489 11.992,-12.496 21.989,-29.988 29.489,-51.48 7.496,-21.988 11.492,-47.481 11.492,-75.969 0,-58.976 -32.985,-121.449 -99.457,-187.922 L 481.176,72.3164 174.297,368.195 c -65.973,65.477 -98.9611,127.95 -98.9611,186.926 0,28.488 4,53.981 11.4961,75.969 7.5,21.492 16.996,38.984 28.988,51.48 11.996,12.996 26.493,23.493 42.985,31.489 16.992,8.496 33.484,13.996 49.48,16.992" /></g></g></svg>