<?xml version="1.0" encoding="UTF-8" standalone="no"?>
<svg
   xmlns:dc="http://purl.org/dc/elements/1.1/"
   xmlns:cc="http://creativecommons.org/ns#"
   xmlns:rdf="http://www.w3.org/1999/02/22-rdf-syntax-ns#"
   xmlns:svg="http://www.w3.org/2000/svg"
   xmlns="http://www.w3.org/2000/svg"
   xmlns:sodipodi="http://sodipodi.sourceforge.net/DTD/sodipodi-0.dtd"
   xmlns:inkscape="http://www.inkscape.org/namespaces/inkscape"
   version="1.1"
   id="svg2"
   xml:space="preserve"
   width="157.33333"
   height="148"
   viewBox="0 0 157.33333 148"
   sodipodi:docname="ico-1.eps"><metadata
     id="metadata8"><rdf:RDF><cc:Work
         rdf:about=""><dc:format>image/svg+xml</dc:format><dc:type
           rdf:resource="http://purl.org/dc/dcmitype/StillImage" /></cc:Work></rdf:RDF></metadata><defs
     id="defs6" /><sodipodi:namedview
     pagecolor="#ffffff"
     bordercolor="#666666"
     borderopacity="1"
     objecttolerance="10"
     gridtolerance="10"
     guidetolerance="10"
     inkscape:pageopacity="0"
     inkscape:pageshadow="2"
     inkscape:window-width="640"
     inkscape:window-height="480"
     id="namedview4" /><g
     id="g10"
     inkscape:groupmode="layer"
     inkscape:label="ink_ext_XXXXXX"
     transform="matrix(1.3333333,0,0,-1.3333333,0,148)"><g
       id="g12"
       transform="scale(0.1)"><path
         d="m 483.637,1043.66 c -7.496,6.5 -15.992,9.5 -26.489,8.5 -87.964,-13.5 -166.433,-44.98 -234.906,-94.465 C 153.77,907.215 99.793,843.742 61.3086,767.273 22.8242,691.305 4.82813,607.336 6.82813,515.375 9.32813,444.902 25.3203,378.93 54.3086,317.953 83.2969,256.477 122.281,202.5 170.762,156.016 219.246,109.535 274.723,73.0508 337.195,47.5625 399.672,21.5703 466.645,8.57813 537.117,9.07422 592.594,10.0742 645.574,19.0703 695.055,35.5664 745.035,52.0586 791.016,75.5508 833,105.539 c 8.496,6.496 12.992,14.492 13.492,24.988 0.5,10.496 -2.996,19.993 -10.496,27.989 L 495.633,498.879 v 518.291 c -0.5,11 -4.496,19.99 -11.996,26.49"
         style="fill:#ffffff;fill-opacity:1;fill-rule:nonzero;stroke:none"
         id="path14" /><path
         d="m 611.586,1118.13 c -6.996,-6.99 -10.496,-15.49 -10.996,-25.49 v -489.3 h 488.8 c 10.5,0.5 19,3.996 26,10.992 6.99,7 9.99,15.496 9.49,25.992 -6.5,87.465 -31.99,166.934 -76.47,238.403 -43.98,70.972 -101.457,128.453 -172.43,172.933 -71.468,43.98 -150.937,69.47 -238.902,76.47 -9.996,0.5 -18.492,-3 -25.492,-10"
         style="fill:#ffffff;fill-opacity:1;fill-rule:nonzero;stroke:none"
         id="path16" /><path
         d="m 1186.36,486.387 c -7,7.496 -16,11.992 -26.99,12.492 H 641.074 L 986.438,153.52 c 6.996,-6.5 14.992,-9.997 23.992,-10.497 9,-0.5 16.99,2.5 24.49,8.497 42.48,40.484 77.47,86.464 104.96,138.945 27.48,51.976 45.98,108.457 54.48,169.43 1.49,10.496 -1.5,19.492 -8,26.492"
         style="fill:#ffffff;fill-opacity:1;fill-rule:nonzero;stroke:none"
         id="path18" /></g></g></svg>
