<?xml version="1.0" encoding="UTF-8" standalone="no"?>
<svg
   xmlns:dc="http://purl.org/dc/elements/1.1/"
   xmlns:cc="http://creativecommons.org/ns#"
   xmlns:rdf="http://www.w3.org/1999/02/22-rdf-syntax-ns#"
   xmlns:svg="http://www.w3.org/2000/svg"
   xmlns="http://www.w3.org/2000/svg"
   xmlns:sodipodi="http://sodipodi.sourceforge.net/DTD/sodipodi-0.dtd"
   xmlns:inkscape="http://www.inkscape.org/namespaces/inkscape"
   version="1.1"
   id="svg2"
   xml:space="preserve"
   width="148"
   height="129.33333"
   viewBox="0 0 148 129.33333"
   sodipodi:docname="ico-4.eps"><metadata
     id="metadata8"><rdf:RDF><cc:Work
         rdf:about=""><dc:format>image/svg+xml</dc:format><dc:type
           rdf:resource="http://purl.org/dc/dcmitype/StillImage" /></cc:Work></rdf:RDF></metadata><defs
     id="defs6" /><sodipodi:namedview
     pagecolor="#ffffff"
     bordercolor="#666666"
     borderopacity="1"
     objecttolerance="10"
     gridtolerance="10"
     guidetolerance="10"
     inkscape:pageopacity="0"
     inkscape:pageshadow="2"
     inkscape:window-width="640"
     inkscape:window-height="480"
     id="namedview4" /><g
     id="g10"
     inkscape:groupmode="layer"
     inkscape:label="ink_ext_XXXXXX"
     transform="matrix(1.3333333,0,0,-1.3333333,0,129.33333)"><g
       id="g12"
       transform="scale(0.1)"><path
         d="m 1107.97,963.18 c -10,9.996 -22.49,14.992 -36.99,15.492 H 452.73 c -14.496,-0.5 -26.488,-5.496 -36.984,-15.492 -9.496,-9.496 -14.996,-21.992 -15.496,-36.989 V 751.262 c 0.5,-14.992 6,-27.489 15.496,-36.985 10.496,-9.996 22.488,-14.992 36.984,-15.492 h 618.25 c 14.5,0.5 26.99,5.496 36.99,15.492 9.49,9.496 14.49,21.993 14.99,36.985 v 174.929 c -0.5,14.997 -5.5,27.493 -14.99,36.989"
         style="fill:#ffffff;fill-opacity:1;fill-rule:nonzero;stroke:none"
         id="path14" /><path
         d="m 19.9023,714.277 c 9.4961,-9.996 21.9922,-14.992 36.9883,-15.492 H 278.301 c 14.492,0.5 26.988,5.496 36.984,15.492 9.496,9.496 14.996,21.993 15.492,36.985 v 174.929 c -0.496,14.997 -5.996,27.493 -15.492,36.989 -9.996,9.996 -22.492,14.992 -36.984,15.492 H 56.8906 C 41.8945,978.172 29.3984,973.176 19.9023,963.18 9.90625,953.684 4.91016,941.188 4.41016,926.191 V 751.262 c 0.5,-14.992 5.49609,-27.489 15.49214,-36.985"
         style="fill:#ffffff;fill-opacity:1;fill-rule:nonzero;stroke:none"
         id="path16" /><path
         d="M 415.746,613.816 C 406.25,603.82 400.75,591.328 400.25,576.332 v -174.43 c 0.5,-14.992 6,-27.488 15.496,-37.484 10.496,-9.496 22.488,-14.492 36.984,-14.992 h 618.25 c 14.5,0.5 26.99,5.496 36.99,14.992 9.49,9.996 14.49,22.492 14.99,37.484 v 174.43 c -0.5,14.996 -5.5,27.488 -14.99,37.484 -10,9.497 -22.49,14.497 -36.99,14.997 H 452.73 c -14.496,-0.5 -26.488,-5.5 -36.984,-14.997"
         style="fill:#ffffff;fill-opacity:1;fill-rule:nonzero;stroke:none"
         id="path18" /><path
         d="m 330.781,576.332 c -0.5,14.996 -6,27.488 -15.496,37.484 -9.996,9.497 -22.492,14.497 -36.984,14.997 H 56.8906 c -14.9961,-0.5 -27.4922,-5.5 -36.9883,-14.997 C 9.90625,603.82 4.91016,591.328 4.41016,576.332 v -174.43 c 0.5,-14.992 5.49609,-27.488 15.49214,-37.484 9.4961,-9.496 21.9922,-14.496 36.9883,-14.992 H 278.301 c 14.492,0.496 26.988,5.496 36.984,14.992 9.496,9.996 14.996,22.492 15.496,37.484 v 174.43"
         style="fill:#ffffff;fill-opacity:1;fill-rule:nonzero;stroke:none"
         id="path20" /><path
         d="M 415.746,263.957 C 406.25,254.461 400.75,241.969 400.25,226.973 V 52.043 c 0.5,-14.9922 6,-27.4883 15.496,-36.9844 10.496,-9.9961 22.488,-14.9961 36.984,-15.4961 h 618.25 c 14.5,0.5 26.99,5.5 36.99,15.4961 9.49,9.4961 14.49,21.9922 14.99,36.9844 v 174.93 c -0.5,14.996 -5.5,27.488 -14.99,36.984 -10,9.996 -22.49,14.996 -36.99,15.496 H 452.73 c -14.496,-0.5 -26.488,-5.5 -36.984,-15.496"
         style="fill:#ffffff;fill-opacity:1;fill-rule:nonzero;stroke:none"
         id="path22" /><path
         d="m 330.781,226.973 c -0.5,14.996 -6,27.488 -15.496,36.984 -9.996,9.996 -22.492,14.996 -36.984,15.496 H 56.8906 c -14.9961,-0.5 -27.4922,-5.5 -36.9883,-15.496 C 9.90625,254.461 4.91016,241.969 4.41016,226.973 V 52.043 C 4.91016,37.0508 9.90625,24.5547 19.9023,15.0586 29.3984,5.0625 41.8945,0.0625 56.8906,-0.4375 H 278.301 c 14.492,0.5 26.988,5.5 36.984,15.4961 9.496,9.4961 14.996,21.9922 15.496,36.9844 v 174.93"
         style="fill:#ffffff;fill-opacity:1;fill-rule:nonzero;stroke:none"
         id="path24" /></g></g></svg>
