<?xml version="1.0" encoding="UTF-8" standalone="no"?>
<svg
   xmlns:dc="http://purl.org/dc/elements/1.1/"
   xmlns:cc="http://creativecommons.org/ns#"
   xmlns:rdf="http://www.w3.org/1999/02/22-rdf-syntax-ns#"
   xmlns:svg="http://www.w3.org/2000/svg"
   xmlns="http://www.w3.org/2000/svg"
   xmlns:sodipodi="http://sodipodi.sourceforge.net/DTD/sodipodi-0.dtd"
   xmlns:inkscape="http://www.inkscape.org/namespaces/inkscape"
   version="1.1"
   id="svg2"
   xml:space="preserve"
   width="148"
   height="129.33333"
   viewBox="0 0 148 129.33333"
   sodipodi:docname="ico-3.eps"><metadata
     id="metadata8"><rdf:RDF><cc:Work
         rdf:about=""><dc:format>image/svg+xml</dc:format><dc:type
           rdf:resource="http://purl.org/dc/dcmitype/StillImage" /></cc:Work></rdf:RDF></metadata><defs
     id="defs6" /><sodipodi:namedview
     pagecolor="#ffffff"
     bordercolor="#666666"
     borderopacity="1"
     objecttolerance="10"
     gridtolerance="10"
     guidetolerance="10"
     inkscape:pageopacity="0"
     inkscape:pageshadow="2"
     inkscape:window-width="640"
     inkscape:window-height="480"
     id="namedview4" /><g
     id="g10"
     inkscape:groupmode="layer"
     inkscape:label="ink_ext_XXXXXX"
     transform="matrix(1.3333333,0,0,-1.3333333,0,129.33333)"><g
       id="g12"
       transform="scale(0.1)"><path
         d="M 347.453,943.09 C 279.98,919.602 221.004,886.613 170.023,845.129 119.043,803.645 79.0586,755.664 49.5703,701.188 21.082,645.711 6.58984,586.734 6.08984,523.758 6.58984,469.781 17.5859,418.301 39.5742,369.82 61.0664,321.34 91.0547,277.855 130.539,238.371 123.043,210.883 113.047,184.395 100.551,159.402 88.0547,134.414 74.5625,112.422 60.5664,92.9297 47.0742,73.4375 35.5781,57.9453 26.082,46.4492 16.5859,34.9531 11.5859,29.457 11.0859,28.957 c -2.49606,-2.5 -3.99606,-5.5 -4.49606,-8.4961 -0.5,-3.5 -0.5,-7 1,-10.49606 1.5,-3.5 3.99606,-6 6.49606,-7.5 2.5,-1.99609 5.9961,-2.99609 9.4961,-2.99609 48.4805,0.5 92.465,6.99609 131.949,19.49215 39.981,12.4961 74.469,27.4883 103.957,44.4805 29.489,17.4922 53.477,33.4883 70.973,48.4806 35.984,-13.4923 73.469,-23.9884 112.953,-31.4884 39.484,-7.4961 80.469,-10.9922 121.953,-10.9922 77.469,0.5 150.438,11.9922 217.91,35.4846 67.473,23.492 126.95,56.476 177.93,97.961 50.983,41.484 90.963,89.465 119.953,143.941 28.49,54.981 42.98,113.957 43.48,176.93 -0.5,62.976 -14.99,121.953 -43.48,177.43 -28.99,54.476 -68.97,102.457 -119.953,143.941 -50.98,41.484 -110.457,74.473 -177.93,97.961 -67.472,23.492 -140.441,34.988 -217.91,35.484 C 487.895,978.078 414.926,966.582 347.453,943.09 Z M 775.281,523.758 c 0.5,19.492 6.996,36.484 19.992,49.98 13.497,12.996 30.489,19.492 49.981,19.992 19.492,-0.5 35.984,-6.996 49.48,-19.992 13.493,-13.496 19.993,-30.488 20.493,-49.98 -0.5,-19.492 -7,-35.985 -20.493,-49.481 -13.496,-12.996 -29.988,-19.992 -49.48,-20.492 -19.492,0.5 -36.484,7.496 -49.981,20.492 -12.996,13.496 -19.492,29.989 -19.992,49.481 z m -139.945,0 c -0.5,-19.492 -6.996,-35.985 -19.992,-49.481 -13.492,-12.996 -30.485,-19.992 -49.977,-20.492 -19.492,0.5 -35.988,7.496 -49.48,20.492 -13.496,13.496 -19.992,29.989 -20.492,49.481 0.5,19.492 6.996,36.484 20.492,49.98 13.492,12.996 29.988,19.492 49.48,19.992 19.492,-0.5 36.485,-6.996 49.977,-19.992 12.996,-13.496 19.492,-30.488 19.992,-49.98 z m -399.34,49.98 c 13.496,12.996 30.488,19.492 49.981,19.992 19.492,-0.5 35.984,-6.996 49.48,-19.992 12.996,-13.496 19.992,-30.488 20.492,-49.98 -0.5,-19.492 -7.496,-35.985 -20.492,-49.481 -13.496,-12.996 -29.988,-19.992 -49.48,-20.492 -19.493,0.5 -36.485,7.496 -49.981,20.492 -12.992,13.496 -19.492,29.989 -19.992,49.481 0.5,19.492 7,36.484 19.992,49.98"
         style="fill:#ffffff;fill-opacity:1;fill-rule:nonzero;stroke:none"
         id="path14" /></g></g></svg>
