<?xml version="1.0" encoding="UTF-8" standalone="no"?>
<svg
   xmlns:dc="http://purl.org/dc/elements/1.1/"
   xmlns:cc="http://creativecommons.org/ns#"
   xmlns:rdf="http://www.w3.org/1999/02/22-rdf-syntax-ns#"
   xmlns:svg="http://www.w3.org/2000/svg"
   xmlns="http://www.w3.org/2000/svg"
   viewBox="0 0 125.33333 125.33333"
   height="125.33333"
   width="125.33333"
   xml:space="preserve"
   id="svg2"
   version="1.1"><metadata
     id="metadata8"><rdf:RDF><cc:Work
         rdf:about=""><dc:format>image/svg+xml</dc:format><dc:type
           rdf:resource="http://purl.org/dc/dcmitype/StillImage" /></cc:Work></rdf:RDF></metadata><defs
     id="defs6" /><g
     transform="matrix(1.3333333,0,0,-1.3333333,0,125.33333)"
     id="g10"><g
       transform="scale(0.1)"
       id="g12"><path
         id="path14"
         style="fill:#2f9bdf;fill-opacity:1;fill-rule:nonzero;stroke:none"
         d="m 271.285,906.012 c 0,9.496 -3.5,17.492 -9.996,23.988 -6.5,6.496 -14.496,9.996 -23.992,9.996 H 34.8789 c -9.4961,0 -17.4922,-3.5 -23.9922,-9.996 C 4.39063,923.504 0.890625,915.508 0.890625,906.012 V 27.3633 c 0,-9 3.500005,-16.9961 9.996075,-23.99221 C 17.3867,-3.125 25.3828,-6.625 34.8789,-6.625 H 913.527 c 9.496,0 16.993,3.5 23.489,9.99609 7,6.99611 10.496,14.99221 10.496,23.99221 V 635.617 c 0,9.496 -3.496,17.492 -10.496,23.992 -6.496,6.496 -13.993,9.996 -23.489,9.996 -7.996,0 -14.996,-2.5 -20.992,-7.5 L 609.648,435.699 v 199.918 c 0,9.496 -3.5,17.492 -10.496,23.992 -6.496,6.496 -14.496,9.996 -23.992,9.996 -7.996,0 -14.992,-2.5 -20.492,-7.5 L 271.285,435.699 v 470.313" /></g></g></svg>