<?xml version="1.0" encoding="UTF-8" standalone="no"?>
<svg
   xmlns:dc="http://purl.org/dc/elements/1.1/"
   xmlns:cc="http://creativecommons.org/ns#"
   xmlns:rdf="http://www.w3.org/1999/02/22-rdf-syntax-ns#"
   xmlns:svg="http://www.w3.org/2000/svg"
   xmlns="http://www.w3.org/2000/svg"
   xmlns:sodipodi="http://sodipodi.sourceforge.net/DTD/sodipodi-0.dtd"
   xmlns:inkscape="http://www.inkscape.org/namespaces/inkscape"
   version="1.1"
   id="svg2"
   xml:space="preserve"
   width="110.66667"
   height="90.666664"
   viewBox="0 0 110.66667 90.666664"
   sodipodi:docname="logoff.eps"><metadata
     id="metadata8"><rdf:RDF><cc:Work
         rdf:about=""><dc:format>image/svg+xml</dc:format><dc:type
           rdf:resource="http://purl.org/dc/dcmitype/StillImage" /></cc:Work></rdf:RDF></metadata><defs
     id="defs6" /><sodipodi:namedview
     pagecolor="#ffffff"
     bordercolor="#666666"
     borderopacity="1"
     objecttolerance="10"
     gridtolerance="10"
     guidetolerance="10"
     inkscape:pageopacity="0"
     inkscape:pageshadow="2"
     inkscape:window-width="640"
     inkscape:window-height="480"
     id="namedview4" /><g
     id="g10"
     inkscape:groupmode="layer"
     inkscape:label="ink_ext_XXXXXX"
     transform="matrix(1.3333333,0,0,-1.3333333,0,90.666667)"><g
       id="g12"
       transform="scale(0.1)"><path
         d="m 534.805,656.125 c -6.496,6.496 -14.492,9.996 -23.989,9.996 -9.496,0 -17.496,-3.5 -23.992,-9.996 -6.496,-6.496 -9.996,-14.492 -9.996,-23.988 V 478.695 H 237.926 c -9.496,0 -16.996,-3.496 -23.492,-10.496 -6.996,-6.496 -10.496,-13.992 -10.496,-23.488 V 239.793 c 0,-9.496 3.5,-16.996 10.496,-23.492 6.496,-6.996 13.996,-10.496 23.492,-10.496 H 476.828 V 52.8672 c 0,-9.4961 3.5,-17.4922 9.996,-24.4922 6.496,-6.4961 14.496,-9.9961 23.992,-9.9961 9.497,0 17.493,3.5 23.989,9.9961 l 289.386,289.887 c 6.997,6.996 10.497,14.992 10.497,23.988 0,9.496 -3.5,17.492 -10.497,23.992 L 534.805,656.125"
         style="fill:#ffffff;fill-opacity:1;fill-rule:nonzero;stroke:none"
         id="path14" /><path
         d="m 323.391,615.141 c 4.496,0 7.996,1 10.496,3.5 2.996,2 4.996,5.496 5.996,9.996 0.5,4.496 1,8.996 1,12.496 0.5,3.496 0.5,8.496 0,13.992 -0.5,6 -0.5,9.496 -0.5,10.996 0,4.5 -1.5,8.496 -4.996,11.996 -3.5,3.496 -7.5,4.996 -11.996,4.996 H 152.957 c -42.48,0 -78.4687,-14.992 -108.457,-44.98 C 14.5156,608.145 -0.480469,572.16 -0.480469,529.676 V 154.824 C -0.480469,112.344 14.5156,76.3555 44.5,46.3711 74.4883,16.3828 110.477,1.38672 152.957,1.38672 h 170.434 c 4.496,0 7.996,1 10.496,3.5 2.996,2.5 4.996,5.99608 5.996,10.49608 0.5,4.4961 1,8.9961 1,12.4922 0.5,3.5 0.5,8.5 0,13.9961 -0.5,5.4961 -0.5,9.4961 -0.5,10.9961 0,2.5 -0.5,4.9961 -1,6.9961 -0.5,1.5 -2,3 -3.996,4.5 -1.5,1.5 -3,2.4961 -4,2.9961 -1,0.5 -3,1 -5.996,1.5 -3.5,0.5 -5.5,0.5 -6,0.5 -1.5,0 -3.496,0 -6.996,0 H 152.957 c -23.488,0 -43.48,8.4961 -60.4726,24.9922 C 75.9883,111.344 67.4922,131.336 67.4922,154.824 v 374.852 c 0,23.492 8.4961,43.484 24.9922,60.476 16.9926,16.493 36.9846,24.989 60.4726,24.989 h 170.434"
         style="fill:#ffffff;fill-opacity:1;fill-rule:nonzero;stroke:none"
         id="path16" /></g></g></svg>
