<?xml version="1.0" encoding="UTF-8" standalone="no"?>
<svg
   xmlns:dc="http://purl.org/dc/elements/1.1/"
   xmlns:cc="http://creativecommons.org/ns#"
   xmlns:rdf="http://www.w3.org/1999/02/22-rdf-syntax-ns#"
   xmlns:svg="http://www.w3.org/2000/svg"
   xmlns="http://www.w3.org/2000/svg"
   viewBox="0 0 30.666668 30.666668"
   height="30.666668"
   width="30.666668"
   xml:space="preserve"
   id="svg2"
   version="1.1"><metadata
     id="metadata8"><rdf:RDF><cc:Work
         rdf:about=""><dc:format>image/svg+xml</dc:format><dc:type
           rdf:resource="http://purl.org/dc/dcmitype/StillImage" /></cc:Work></rdf:RDF></metadata><defs
     id="defs6" /><g
     transform="matrix(1.3333333,0,0,-1.3333333,0,30.666667)"
     id="g10"><g
       transform="scale(0.1)"
       id="g12"><path
         id="path14"
         style="fill:#fefefe;fill-opacity:1;fill-rule:nonzero;stroke:none"
         d="m 200.719,206.789 c -10.996,10.996 -23.489,19.492 -37.985,25.488 -13.996,6.5 -29.488,9.496 -45.98,9.496 -16.496,0 -31.4884,-2.996 -45.9845,-9.496 C 56.7773,226.281 44.2813,217.785 33.2852,206.789 22.7891,196.293 14.293,183.797 7.79688,169.305 c -5.9961,-13.996 -8.9961,-29.489 -8.9961,-45.981 0,-16.496 3,-31.4881 8.9961,-45.9842 C 14.293,62.8477 22.7891,50.3516 33.2852,39.8555 44.2813,29.3594 56.7773,20.8633 70.7695,14.3672 85.2656,8.36719 100.258,5.37109 116.754,5.37109 c 16.492,0 31.984,2.9961 45.98,8.99611 14.496,6.4961 26.989,14.9922 37.985,25.4883 10.496,10.4961 18.992,22.9922 24.992,37.4843 6.496,14.4961 9.496,29.4882 9.496,45.9842 0,16.492 -3,31.985 -9.496,45.981 -6,14.492 -14.496,26.988 -24.992,37.484 z m -80.469,-4 c 8.996,-0.5 17.496,-2.496 25.992,-6.496 8.496,-4.496 15.492,-9.996 20.992,-17.492 5.496,-7.496 7.996,-15.496 8.496,-24.992 -0.5,-7.496 -1.5,-13.493 -4,-17.993 -2.5,-4.496 -5.996,-8.496 -9.996,-11.496 -3.996,-3.496 -7.996,-5.996 -11.996,-7.996 -3.496,-2.496 -6.996,-4.496 -9.496,-5.996 -2.496,-2 -3.996,-4.5 -4.496,-7.496 v -0.5 c 0,-1.5 -0.5,-3 -1.5,-4 -1,-1 -2.5,-1.5 -4,-1.5 h -26.488 c -1.5,0 -3,0.5 -4.4963,1.5 -1,1 -1.5,2.5 -1.5,4 v 2 c 0,6.496 1.5,11.492 4.4963,15.992 2.5,4.496 6,7.996 9.996,10.496 4,2.5 7.996,4.996 11.496,7.496 5,2.5 8.996,4.5 11.496,6.997 2.5,2.5 3.996,5.5 3.996,8.996 0,3 -0.996,5.5 -3.496,8 -2,2.496 -4.5,3.996 -7.996,5.496 -3.5,1.5 -6.5,2 -9.996,2 -4.5,0 -8,-0.5 -10.996,-2 -3,-1.5 -6,-3 -8.4963,-5.496 -2.5,-2.5 -5.5,-6 -8,-9.496 -0.9961,-1 -2.4961,-1.5 -3.9961,-2 -1.5,-0.5 -2.5,0 -4,1 l -16.4922,12.492 c -1.5,1 -2,2 -2,3.5 -0.5,1.5 0,3 0.5,4.5 6.4961,9.496 14.4961,16.992 22.9922,22.488 8.9961,5 19.9924,7.496 32.9844,7.996 z M 116.754,84.3398 c 6.496,0 11.496,-2 15.492,-6.5 4.5,-3.996 6.496,-8.996 6.496,-15.4921 0,-6.5 -1.996,-11.4961 -6.496,-15.4961 -3.996,-3.9961 -8.996,-5.9961 -15.492,-6.4961 -6,0.5 -10.996,2.5 -15.496,6.4961 -3.9963,4 -5.9963,8.9961 -6.4963,15.4961 0.5,6.4961 2.5,11.4961 6.4963,15.4921 4.5,4.5 9.496,6.5 15.496,6.5" /></g></g></svg>