<?xml version="1.0" encoding="UTF-8" standalone="no"?>
<svg
   xmlns:dc="http://purl.org/dc/elements/1.1/"
   xmlns:cc="http://creativecommons.org/ns#"
   xmlns:rdf="http://www.w3.org/1999/02/22-rdf-syntax-ns#"
   xmlns:svg="http://www.w3.org/2000/svg"
   xmlns="http://www.w3.org/2000/svg"
   viewBox="0 0 450.66666 224"
   height="224"
   width="450.66666"
   xml:space="preserve"
   id="svg2"
   version="1.1"><metadata
     id="metadata8"><rdf:RDF><cc:Work
         rdf:about=""><dc:format>image/svg+xml</dc:format><dc:type
           rdf:resource="http://purl.org/dc/dcmitype/StillImage" /></cc:Work></rdf:RDF></metadata><defs
     id="defs6" /><g
     transform="matrix(1.3333333,0,0,-1.3333333,0,224)"
     id="g10"><g
       transform="scale(0.1)"
       id="g12"><path
         id="path14"
         style="fill:#57b0e6;fill-opacity:1;fill-rule:nonzero;stroke:none"
         d="m 136.605,298.574 402.34,-11.496 V 8.6875 L 927.789,272.582 v 1.5 L 3209.38,201.113 3385.8,1696.01 2.66016,1384.14 136.605,298.574" /><path
         id="path16"
         style="fill:#ffffff;fill-opacity:1;fill-rule:nonzero;stroke:none"
         d="m 1265.65,1210.71 c -12.49,4 -27.49,5.99 -44.98,5.99 h -33.49 c -7.49,0 -12.49,-0.99 -14.49,-2.99 -3,-2 -4.5,-10 -4.5,-23.5 -3.99,-62.97 -7.49,-118.45 -9.99,-165.93 -4,-48.479 -7,-90.464 -9,-125.448 -3,-35.984 -5.5,-66.473 -7.5,-91.465 -2.5,-24.488 -5,-45.48 -6.99,-62.972 -1,-16.493 -2,-29.989 -3,-40.485 -1,-10.996 -1.5,-19.992 -1.5,-26.488 0,-45.484 7.99,-77.969 23.49,-97.461 16.49,-18.492 42.98,-27.988 79.97,-27.988 20.49,0 37.48,2.996 50.97,8.996 12.5,5.496 23,13.992 30.49,24.488 8,9.996 14,20.992 17.5,33.488 3,13.493 4.5,26.989 4.5,39.485 0,2.996 -3,4.996 -8.5,5.996 -6,1 -12.5,3 -18.99,5.496 -6,2 -12,6.5 -17.5,13.496 -6,6.496 -9,17.992 -9,33.488 0,10.496 0.5,26.989 1.5,49.481 2,21.488 4,45.98 6,74.468 3,26.989 5.5,55.477 7,85.965 3,29.989 5.5,58.977 7.5,86.97 3,28.48 5,52.98 6,74.47 0.99,22.49 1.49,39.48 1.49,50.97 0,10.5 -0.99,20.5 -2.99,29.49 -4,9.5 -9.5,18 -16,24.49 -7,6.5 -16.49,12.5 -27.99,17.5" /><path
         id="path18"
         style="fill:#ffffff;fill-opacity:1;fill-rule:nonzero;stroke:none"
         d="m 1452.08,1216.7 c -7.5,0 -12.5,-0.99 -14.49,-2.99 -2,-2 -3,-10 -3,-23.5 -3.5,-62.97 -7.5,-118.45 -11.5,-165.93 -3,-48.479 -6,-90.464 -8.5,-125.448 -2,-35.984 -4.5,-66.473 -7.49,-91.465 -2,-24.488 -4,-45.48 -6,-62.972 -1,-16.493 -2,-29.989 -2.5,-40.485 -1,-10.996 -1.5,-19.992 -1.5,-26.488 0,-45.484 7.5,-77.969 22.99,-97.461 16.5,-18.492 43.48,-27.988 80.47,-27.988 20.49,0 36.98,2.996 49.48,8.996 13.5,5.496 24.49,13.992 31.99,24.488 7.49,9.996 12.99,20.992 15.99,33.488 3,13.493 4.5,26.989 4.5,39.485 0,2.996 -3,4.996 -9,5.996 -4.5,1 -10.49,3 -17.49,5.496 -6.5,2 -12.99,6.5 -18.99,13.496 -4.5,6.496 -7,17.992 -7,33.488 0,10.496 0.5,26.989 1.5,49.481 1.5,21.488 3.5,45.98 5.5,74.468 3,26.989 5.5,55.477 7.5,85.965 1.99,29.989 4.49,58.977 6.99,86.97 2,28.48 4,52.98 6,74.47 1,22.49 1.5,39.48 1.5,50.97 0,10.5 -1.5,20.5 -4.5,29.49 -2.5,9.5 -7.5,18 -14.49,24.49 -6.5,6.5 -16.5,12.5 -28.99,17.5 -11.5,4 -26.49,5.99 -43.98,5.99 h -34.99" /><path
         id="path20"
         style="fill:#ffffff;fill-opacity:1;fill-rule:nonzero;stroke:none"
         d="m 672.891,1124.74 3,52.48 c 0,5 -1.5,8.5 -4.5,10 -2,0.99 -4.996,1.49 -8.996,1.49 h -397.84 c -10.496,0 -19.492,-1.49 -25.992,-3.99 -7.497,-4 -13.993,-9 -18.993,-15 -3.996,-5.49 -7.496,-12.49 -9.996,-19.99 -1.996,-7 -2.996,-14.49 -2.996,-21.99 l -3,-49.48 c 0,-8.49 3.5,-12.99 9.996,-12.99 H 355.02 c -2,-24.49 -4,-50.48 -5.5,-78.973 -2,-27.988 -4.497,-56.477 -7.497,-85.965 -2,-27.988 -4,-55.977 -5.996,-84.465 -2,-28.492 -4,-54.48 -5.5,-78.469 -2,-24.492 -3.5,-45.484 -4.496,-62.976 -1,-17.492 -1.5,-30.488 -1.5,-38.984 0,-25.489 7.496,-44.481 21.989,-56.977 13.496,-12.496 36.988,-18.992 69.972,-18.992 h 49.481 c 5.5,0 8.996,4.496 9.996,12.992 l 33.488,492.809 h 96.461 c 25.988,0 43.48,5.49 52.477,15.99 8.5,11.49 13.496,25.99 14.496,43.48" /><path
         id="path22"
         style="fill:#ffffff;fill-opacity:1;fill-rule:nonzero;stroke:none"
         d="m 690.383,941.316 c -11.496,-22.492 -20.992,-43.984 -27.988,-65.476 -6.497,-22.488 -11.497,-43.981 -14.493,-64.473 -2,-20.492 -3,-38.484 -3,-53.976 0,-39.485 6.496,-72.973 18.993,-100.461 13.496,-25.992 30.488,-46.981 50.98,-62.477 20.492,-16.492 43.48,-28.488 68.473,-34.984 26.488,-6 52.476,-8.996 78.968,-8.996 19.493,0 38.985,1.5 59.473,4.496 20.492,4 39.484,9.996 56.981,17.492 16.492,7.5 30.49,17.996 40.98,30.488 10.5,11.496 16,26.492 16,43.985 0,13.492 -3,24.488 -9,31.988 -5.5,8.496 -12.5,15.492 -20.49,20.488 -7.498,3.5 -14.998,6.5 -21.494,8.5 -7.996,0.996 -13.496,1.496 -15.993,1.496 -7,0 -12.496,-2.496 -16.496,-6.996 -3.496,-4.996 -7.996,-10.496 -12.992,-15.992 -5.5,-6.996 -12.996,-12.996 -21.492,-17.492 -7.996,-5 -19.492,-7.5 -34.988,-7.5 -15.492,0 -28.989,2.5 -39.481,7.5 -10.496,5.496 -19.492,12.492 -26.492,19.992 -5.496,8.996 -10.496,18.992 -14.492,29.488 -3,10.492 -4.5,21.989 -4.5,33.485 8.996,0 22.492,0.5 40.984,1.5 16.492,1 35.485,3.5 56.977,6.996 20.492,4 40.984,9.496 62.476,15.996 21.493,6.996 40.985,16.992 58.473,29.488 17.5,13.492 31.49,29.488 41.98,47.981 11.5,19.492 17.5,42.48 17.5,69.968 0,18.496 -3.5,35.489 -10,50.981 -5,16.496 -14.49,30.489 -27.98,41.989 -12.5,12.49 -29.49,22.49 -50.984,29.48 -21.493,6.5 -47.481,10 -78.469,10 -38.984,0 -71.973,-5.5 -98.961,-15.99 -28.488,-10.5 -51.981,-24.49 -71.473,-40.987 -19.492,-17.492 -35.484,-36.488 -47.98,-57.977 z m 232.906,-49.48 c 0,-21.492 -10.996,-38.484 -33.484,-49.981 -23.492,-12.496 -52.981,-18.492 -88.965,-18.492 2,12.492 4.496,25.489 7.496,38.985 3,13.492 7.996,25.988 14.496,36.484 5.996,11.496 13.492,21.492 21.988,28.988 9.496,6.996 20.993,10.496 33.489,10.496 15.492,0 26.988,-4.996 34.984,-14.496 6.5,-8.996 9.996,-19.492 9.996,-31.984" /><path
         id="path24"
         style="fill:#ffffff;fill-opacity:1;fill-rule:nonzero;stroke:none"
         d="m 2309.23,1008.29 c -8.99,11.5 -19.49,21.49 -30.98,28.99 -11.5,6.99 -24.49,11.99 -38.98,14.49 -14.5,3 -30.49,4.5 -46.99,4.5 -29.99,0 -55.48,-5.5 -76.97,-15.99 -21.49,-11.5 -40.98,-33.49 -58.47,-65.479 -1,9.496 -3,18.992 -5.5,27.489 -3,8.5 -8,16.5 -15,23.49 -6.49,6.5 -15.99,12 -27.48,15.99 -11.5,4 -25.99,6 -43.48,6 h -34.99 c -8,0 -12.5,-1 -13.5,-3 -2.5,-2 -4.5,-9.99 -5.5,-23.49 -3.99,-64.971 -7.99,-119.448 -11.99,-162.932 -2.5,-43.981 -5.5,-80.469 -8.5,-109.457 -2,-29.489 -3.49,-51.477 -4.49,-66.973 -1,-16.492 -1.5,-29.488 -1.5,-37.984 0,-13.493 1.5,-25.989 4.49,-36.485 2,-10.496 7,-19.492 14.5,-25.988 6.99,-7 15.99,-12.496 26.49,-15.996 11.49,-3.996 26.49,-5.996 44.98,-5.996 h 31.99 c 7.5,0 12.49,1 14.49,2.996 3,2.5 5,7.5 6,14.496 1,18.492 2.5,39.484 4.5,63.973 2.49,24.492 4.99,50.48 6.99,78.968 1,27.989 4,55.481 9,82.969 3.5,25.988 9.5,49.481 17.49,69.973 7.5,19.492 17,34.984 27.49,46.48 11.5,11.496 25.49,17.492 40.98,17.492 18.5,0 30.49,-5.996 36.49,-17.492 5.5,-11.496 8.5,-25.488 8.5,-40.984 0,-9.496 -0.5,-25.488 -1.5,-47.981 -3,-22.492 -5.5,-45.48 -7,-69.972 -2,-25.489 -4,-48.981 -6,-71.469 -2,-22.492 -3,-39.984 -3,-52.48 0,-11.497 1,-22.993 3,-33.489 3,-8.496 8,-16.492 14.5,-22.988 7,-7 16.49,-12.496 27.99,-15.996 11.49,-2.996 26.99,-4.496 46.48,-4.496 h 27.49 c 5,0 8.99,0 11.99,0 3.5,1 6,2.5 7,4.496 2,1.5 3,4 3,7 1,3.996 1.5,9.496 1.5,15.992 3,34.984 5.49,63.973 6.99,87.465 1,24.492 2.5,45.48 4.5,63.973 2,28.492 5,54.48 9,78.968 4.5,24.492 11,44.985 18.99,62.477 7.5,18.492 17.49,32.988 28.99,42.484 10.5,9.496 23.99,14.492 39.49,14.492 17.49,0 29.48,-5.996 35.98,-17.492 6,-11.496 9,-25.488 9,-40.984 0,-2.5 -0.5,-9.996 -1.5,-21.492 0,-11.493 -1,-24.989 -3,-39.485 -2,-15.492 -3.5,-31.984 -4.5,-49.48 -1.5,-17.492 -3,-34.485 -4,-50.977 -2,-16.496 -3.5,-32.488 -4.5,-46.984 -1,-13.492 -1.5,-24.488 -1.5,-33.484 0,-11.497 1.5,-22.993 4.5,-33.489 3,-8.496 8,-16.492 14.5,-22.988 5.5,-7 14.49,-12.496 25.99,-15.996 11.49,-2.996 27.49,-4.496 46.98,-4.496 h 28.99 c 4.99,0 8.99,0 11.49,0 3,1 5.5,2.5 7.5,4.496 2,1.5 3,4 3,7 1,3.996 1.5,9.496 1.5,15.992 2,30.488 4.5,61.977 7,94.961 2.99,31.988 5.99,63.477 8.99,94.465 2,31.484 4,60.472 5.5,87.465 2,26.488 3,48.48 3,66.972 0,24.489 -4,44.981 -11.5,61.473 -7.49,16.497 -17.49,28.987 -28.99,37.987 -12.49,9.5 -27.99,16.49 -45.48,19.99 -16.49,4 -33.99,6 -52.48,6 -32.99,0 -60.47,-7 -82.97,-20.49 -21.49,-12.5 -40.98,-36.487 -59.47,-71.475 -3,18.492 -9,33.488 -17.5,43.985" /><path
         id="path26"
         style="fill:#ffffff;fill-opacity:1;fill-rule:nonzero;stroke:none"
         d="m 1798.94,617.945 c 2,11.496 3,21.993 3,30.489 0,21.488 -5,38.484 -14.49,50.976 -10.5,11.496 -28.49,17.496 -53.99,17.496 -16.49,0 -30.48,-2.5 -41.98,-7.5 -10.99,-5.496 -19.99,-12.992 -26.49,-21.988 -6.49,-8.496 -11.49,-18.992 -14.49,-30.488 -3,-10.496 -4.5,-21.992 -4.5,-33.489 0,-21.492 5,-38.984 14.5,-52.476 9.49,-13.496 27.98,-20.492 55.47,-20.492 17.49,0 32.49,3.496 43.99,10.496 11.49,6.496 20.49,14.992 25.99,24.488 5.99,9.996 10.49,20.992 12.99,32.488" /><path
         id="path28"
         style="fill:#ffffff;fill-opacity:1;fill-rule:nonzero;stroke:none"
         d="m 3066.93,1016.79 c -13.49,12.49 -30.98,22.49 -52.48,29.48 -21.49,6.5 -47.48,10 -77.47,10 -38.48,0 -71.97,-5.5 -100.46,-15.99 -27.48,-10.5 -50.47,-24.49 -69.97,-40.987 -20.49,-17.492 -36.48,-36.488 -47.98,-57.977 -11.49,-22.492 -21.49,-43.984 -28.99,-65.476 -5.99,-22.488 -10.49,-43.981 -13.49,-64.473 -2,-20.492 -3,-38.484 -3,-53.976 0,-39.485 6.5,-72.973 18.99,-100.461 12.5,-25.992 28.99,-46.981 49.48,-62.477 20.49,-16.492 43.99,-28.488 69.98,-34.984 25.48,-6 50.98,-8.996 77.46,-8.996 19.5,0 39.49,1.5 60.98,4.496 20.49,4 38.98,9.996 55.48,17.492 17.49,7.5 31.99,17.996 42.48,30.488 10.5,11.496 15.99,26.492 15.99,43.985 0,13.492 -3,24.488 -8.99,31.988 -5.5,8.496 -12.5,15.492 -20.49,20.488 -7.5,3.5 -15.5,6.5 -23,8.5 -6.99,1 -12.49,1.496 -15.99,1.496 -6,0 -11,-2.496 -14.49,-6.996 -4,-4.996 -9,-10.496 -15,-15.992 -4.49,-6.996 -11.49,-12.996 -19.99,-17.492 -9,-5 -20.99,-7.5 -36.48,-7.5 -14.5,0 -27.99,2.5 -39.49,7.5 -9.49,5.496 -17.99,12.492 -24.99,19.992 -6.5,8.996 -11.49,18.992 -14.49,29.488 -2.5,10.492 -4,21.989 -4,33.485 8.5,0 21.49,0.5 38.98,1.5 17.5,1 36.99,3.5 58.48,6.996 20.49,4 40.98,9.496 62.47,15.996 21.5,6.996 40.49,16.992 56.98,29.488 18.49,13.492 32.99,29.488 43.49,47.981 10.49,19.492 15.99,42.48 15.99,69.968 0,18.496 -3,35.489 -8.5,50.981 -5.99,16.496 -14.99,30.489 -27.49,41.989 z m -126.95,-92.97 c 7.5,-8.996 11.5,-19.492 11.5,-31.984 0,-21.492 -11,-38.484 -33.49,-49.981 -23.49,-12.496 -53.48,-18.492 -90.46,-18.492 2,12.492 4.5,25.489 7.5,38.985 3.99,13.492 8.99,25.988 14.49,36.484 6,11.496 14,21.492 23.49,28.988 9.5,6.996 20.99,10.496 33.49,10.496 15.49,0 26.98,-5 33.48,-14.496" /></g></g></svg>