<?xml version="1.0" encoding="UTF-8"?>
<svg xmlns="http://www.w3.org/2000/svg" xmlns:xlink="http://www.w3.org/1999/xlink" width="23pt" height="23pt" viewBox="0 0 23 23" version="1.1">
<g id="surface1">
<path style=" stroke:none;fill-rule:nonzero;fill:rgb(99.609375%,99.609375%,99.609375%);fill-opacity:1;" d="M 7.832031 -0.476563 C 6.382813 0.121094 5.132813 0.96875 4.082031 2.070313 C 3.03125 3.121094 2.183594 4.371094 1.53125 5.820313 C 0.933594 7.21875 0.632813 8.769531 0.632813 10.417969 C 0.632813 12.066406 0.933594 13.566406 1.53125 15.015625 C 2.183594 16.464844 3.03125 17.714844 4.082031 18.761719 C 5.132813 19.8125 6.382813 20.664063 7.832031 21.3125 C 9.28125 21.914063 10.78125 22.210938 12.429688 22.210938 C 14.078125 22.210938 15.628906 21.914063 17.027344 21.3125 C 18.476563 20.664063 19.726563 19.8125 20.824219 18.761719 C 21.875 17.714844 22.722656 16.464844 23.324219 15.015625 C 23.972656 13.566406 24.273438 12.066406 24.273438 10.417969 C 24.273438 8.769531 23.972656 7.21875 23.324219 5.820313 C 22.722656 4.371094 21.875 3.121094 20.824219 2.070313 C 19.726563 0.96875 18.476563 0.121094 17.027344 -0.476563 C 15.628906 -1.128906 14.078125 -1.429688 12.429688 -1.429688 C 10.78125 -1.429688 9.28125 -1.128906 7.832031 -0.476563 Z M 17.976563 8.316406 C 18.125 8.316406 18.277344 8.367188 18.375 8.46875 C 18.476563 8.566406 18.527344 8.71875 18.527344 8.867188 L 18.527344 11.917969 C 18.527344 12.066406 18.476563 12.214844 18.375 12.316406 C 18.277344 12.464844 18.125 12.515625 17.976563 12.515625 L 12.429688 12.515625 L 12.429688 15.863281 C 12.429688 16.113281 12.328125 16.316406 12.078125 16.414063 C 11.878906 16.515625 11.679688 16.464844 11.480469 16.265625 L 6.03125 10.816406 C 5.882813 10.667969 5.832031 10.566406 5.832031 10.417969 C 5.832031 10.265625 5.882813 10.117188 6.03125 10.015625 L 11.480469 4.519531 C 11.679688 4.371094 11.878906 4.320313 12.078125 4.417969 C 12.328125 4.46875 12.429688 4.667969 12.429688 4.917969 L 12.429688 8.316406 L 17.976563 8.316406 "/>
</g>
</svg>
