<?xml version="1.0" encoding="UTF-8" standalone="no"?>
<svg
   xmlns:dc="http://purl.org/dc/elements/1.1/"
   xmlns:cc="http://creativecommons.org/ns#"
   xmlns:rdf="http://www.w3.org/1999/02/22-rdf-syntax-ns#"
   xmlns:svg="http://www.w3.org/2000/svg"
   xmlns="http://www.w3.org/2000/svg"
   viewBox="0 0 36.240002 36.240002"
   height="36.240002"
   width="36.240002"
   xml:space="preserve"
   id="svg2"
   version="1.1"><metadata
     id="metadata8"><rdf:RDF><cc:Work
         rdf:about=""><dc:format>image/svg+xml</dc:format><dc:type
           rdf:resource="http://purl.org/dc/dcmitype/StillImage" /></cc:Work></rdf:RDF></metadata><defs
     id="defs6" /><g
     transform="matrix(1.3333333,0,0,-1.3333333,0,36.24)"
     id="g10"><g
       transform="scale(0.1)"
       id="g12"><path
         id="path14"
         style="fill:#ffffff;fill-opacity:1;fill-rule:nonzero;stroke:none"
         d="m 229.742,192.543 -29.269,-29.262 c 7.41,-17.453 7.402,-37.355 0,-54.785 l 29.269,-29.2616 c 20.996,34.6366 20.996,78.6716 0,113.3086 z m -93.851,-12.816 c -24.172,0 -43.8402,-19.668 -43.8402,-43.84 0,-24.168 19.6682,-43.8362 43.8402,-43.8362 24.168,0 43.836,19.6682 43.836,43.8362 0,24.172 -19.668,43.84 -43.836,43.84 z M 192.543,42.0352 163.281,71.3047 c -17.453,-7.4102 -37.351,-7.4024 -54.785,0 L 79.2344,42.0352 c 34.6366,-20.9961 78.6716,-20.9961 113.3086,0 z M 79.2344,229.742 108.496,200.473 c 17.449,7.406 37.356,7.402 54.781,0 l 29.266,29.269 c -34.637,20.996 -78.672,20.996 -113.3086,0 z M 42.0352,79.2344 71.3047,108.496 c -7.4063,17.449 -7.4024,37.352 0,54.785 l -29.2695,29.262 c -20.9961,-34.637 -20.9961,-78.672 0,-113.3086 z M 0,135.887 c 0,75.051 60.8398,135.89 135.891,135.89 75.047,0 135.886,-60.839 135.886,-135.89 C 271.777,60.8398 210.938,0 135.891,0 60.8398,0 0,60.8398 0,135.887" /></g></g></svg>