<?xml version="1.0" encoding="UTF-8" standalone="no"?>
<svg
   xmlns:dc="http://purl.org/dc/elements/1.1/"
   xmlns:cc="http://creativecommons.org/ns#"
   xmlns:rdf="http://www.w3.org/1999/02/22-rdf-syntax-ns#"
   xmlns:svg="http://www.w3.org/2000/svg"
   xmlns="http://www.w3.org/2000/svg"
   xmlns:sodipodi="http://sodipodi.sourceforge.net/DTD/sodipodi-0.dtd"
   xmlns:inkscape="http://www.inkscape.org/namespaces/inkscape"
   version="1.1"
   id="svg2"
   xml:space="preserve"
   width="144"
   height="144"
   viewBox="0 0 144 144"
   sodipodi:docname="ico-2.eps"><metadata
     id="metadata8"><rdf:RDF><cc:Work
         rdf:about=""><dc:format>image/svg+xml</dc:format><dc:type
           rdf:resource="http://purl.org/dc/dcmitype/StillImage" /></cc:Work></rdf:RDF></metadata><defs
     id="defs6" /><sodipodi:namedview
     pagecolor="#ffffff"
     bordercolor="#666666"
     borderopacity="1"
     objecttolerance="10"
     gridtolerance="10"
     guidetolerance="10"
     inkscape:pageopacity="0"
     inkscape:pageshadow="2"
     inkscape:window-width="640"
     inkscape:window-height="480"
     id="namedview4" /><g
     id="g10"
     inkscape:groupmode="layer"
     inkscape:label="ink_ext_XXXXXX"
     transform="matrix(1.3333333,0,0,-1.3333333,0,144)"><g
       id="g12"
       transform="scale(0.1)"><path
         d="M 162.605,929.766 C 113.125,880.285 74.6406,822.805 46.6523,757.332 18.6641,692.359 4.67188,621.887 4.17188,546.418 4.67188,470.949 18.6641,400.977 46.6523,336 74.6406,270.527 113.125,212.551 162.605,163.07 212.086,114.09 269.563,75.6055 335.039,47.1172 400.512,19.1289 470.484,5.13281 545.953,4.63281 c 75.469,0.5 145.942,14.49609 210.914,42.48439 65.477,28.4883 122.953,66.9728 171.934,115.9528 49.48,49.481 88.469,107.457 116.449,172.93 27.99,64.977 42.49,134.949 42.99,210.418 -0.5,75.469 -15,145.941 -42.99,210.914 -27.98,65.473 -66.969,122.953 -116.449,172.434 -48.981,49.476 -106.457,87.964 -171.934,115.954 -64.972,28.49 -135.445,42.48 -210.914,42.98 -75.469,-0.5 -145.441,-14.49 -210.914,-42.98 -65.476,-27.99 -122.953,-66.478 -172.434,-115.954 z m 383.348,-50.981 c 35.485,-0.5 67.973,-8.996 97.461,-25.992 28.488,-17.492 51.481,-40.48 68.973,-68.973 16.992,-29.488 25.488,-61.972 25.988,-97.461 -0.5,-35.484 -8.996,-67.972 -25.988,-96.961 -17.492,-28.988 -40.485,-51.976 -68.973,-68.972 -29.488,-16.992 -61.976,-25.988 -97.461,-26.488 -35.484,0.5 -67.973,9.496 -96.961,26.488 -28.988,16.996 -51.98,39.984 -68.972,68.972 -16.993,28.989 -25.489,61.477 -25.989,96.961 0.5,35.489 8.996,67.973 25.989,97.461 16.992,28.493 39.984,51.481 68.972,68.973 28.988,16.996 61.477,25.492 96.961,25.992 z M 367.023,167.57 c -54.976,26.489 -101.957,62.973 -140.941,108.457 20.992,39.481 50.481,70.469 87.965,93.961 37.484,23.489 79.469,35.985 126.949,36.985 5.496,0 10.496,-1 15.492,-2.5 14.496,-4.496 28.989,-8.496 43.485,-11.493 14.992,-2.5 30.488,-3.5 45.98,-3.5 15.492,0 30.988,1 45.981,3.5 14.996,2.997 29.488,6.997 43.984,11.493 4.496,1.5 9.496,2.5 14.992,2.5 47.481,-1 89.965,-13.496 127.449,-36.985 37.485,-23.492 66.473,-54.48 87.965,-93.961 C 827.34,230.543 780.359,194.059 725.383,167.57 670.902,141.078 610.926,127.586 545.953,127.086 c -64.473,0.5 -124.449,13.992 -178.93,40.484"
         style="fill:#ffffff;fill-opacity:1;fill-rule:nonzero;stroke:none"
         id="path14" /></g></g></svg>
